<svg xmlns="http://www.w3.org/2000/svg" viewBox="0 0 512 512">
  <defs>
    <clipPath id="letter">
      <path d="m 155.48021,427.09712 q -18.24,0 -27.84,-10.08 -9.6,-10.08 -9.6,-28.32 v -266.4 q 0,-18.72 9.6,-28.319998 10.08,-9.6 28.32,-9.6 h 116.64 q 56.64,0 87.36,27.359998 30.72,27.36 30.72,76.32 0,31.68 -13.92,54.72 -13.92,23.04 -40.32,35.52 -25.92,12.48 -63.84,12.48 l 3.84,-8.16 h 19.68 q 20.16,0 35.04,10.08 15.36,9.6 26.4,29.76 l 29.76,55.2 q 6.72,12 6.24,23.52 -0.48,11.52 -8.64,18.72 -8.16,7.2 -24,7.2 -15.84,0 -25.92,-6.72 -9.6,-6.72 -17.28,-20.64 l -46.08,-84.96 q -7.2,-13.44 -17.76,-18.24 -10.08,-4.8 -24.96,-4.8 h -36.48 v 96.96 q 0,18.24 -9.6,28.32 -9.12,10.08 -27.36,10.08 z m 36.96,-189.12 h 66.72 q 29.76,0 44.64,-12 15.36,-12 15.36,-36 0,-23.52 -15.36,-35.52 -14.88,-12 -44.64,-12 h -66.72 z"/>
    </clipPath>
    <filter id="blend">
      <feGaussianBlur stdDeviation="30"/>
    </filter>
  </defs>

  <g clip-path="url(#letter)">
    <g filter="url(#blend)">
      <rect width="512" height="512" fill="#00bd78"/>
      <path d="M 256 0 Q 512 0 512 0 L 512 256 Q 440 300 320 240 Q 200 180 256 0 Z" fill="#38a2ff"/>
      <path d="M 512 100 Q 460 280 340 300 Q 220 330 120 512 L 512 512 Z" fill="#b77ff1"/>
      <path d="M 0 220 Q 80 200 180 260 Q 280 320 200 512 L 0 512 Z" fill="#d49900"/>
    </g>
  </g>
</svg>
